<svg width="216" height="216" viewBox="0 0 216 216" fill="none" xmlns="http://www.w3.org/2000/svg">
<path d="M0 107.999L54.0003 14.4681H162.003L216 107.999L162.003 201.531H54.0003L0 107.999Z" fill="#2B2B2B"/>
<path d="M113.239 154.328L105.687 136.584C112.961 133.897 119.771 130.284 126.072 126.068L113.239 154.328ZM78.539 109.436L60.7953 101.885L89.0555 89.0517C84.8397 95.3524 81.2261 102.163 78.539 109.436ZM152.525 62.5983C152.525 62.5983 129.593 52.7721 103.371 78.9985C93.2251 89.1444 87.1561 100.309 83.2182 110.085C81.921 113.559 82.8012 117.358 85.3493 119.953L95.2172 129.774C97.7652 132.369 101.564 133.202 105.039 131.905C116.707 127.456 127.301 120.588 136.125 111.753C162.347 85.5308 152.525 62.5983 152.525 62.5983ZM119.771 95.3524C116.158 91.7388 116.158 85.8551 119.771 82.2415C123.385 78.6279 129.268 78.6279 132.882 82.2415C136.449 85.8551 136.496 91.7388 132.882 95.3524C129.268 98.966 123.385 98.966 119.771 95.3524ZM93.5494 128.106L87.0171 121.574L93.5494 128.106ZM81.3187 153.448L98.1822 136.584C96.607 136.167 95.0782 135.473 93.6883 134.5L74.7865 153.448H81.3187ZM61.6756 153.448H68.2079L90.3064 131.396L83.7278 124.863L61.6756 146.916V153.448ZM61.6756 140.337L80.6238 121.435C79.6509 120.045 78.956 118.563 78.539 116.941L61.6756 133.805V140.337Z" fill="white"/>
</svg>
