<svg width="216" height="216" viewBox="0 0 216 216" fill="none" xmlns="http://www.w3.org/2000/svg">
<path d="M0 107.999L54.0003 14.4681H162.003L216 107.999L162.003 201.531H54.0003L0 107.999Z" fill="#2B2B2B"/>
<path d="M146.741 91.3774L140.979 100.043C143.758 105.585 145.118 111.729 144.938 117.926C144.758 124.123 143.044 130.178 139.949 135.549H75.0257C71.0027 128.57 69.3358 120.481 70.2719 112.48C71.208 104.479 74.6974 96.9929 80.2227 91.1311C85.748 85.2693 93.0152 81.344 100.947 79.9372C108.878 78.5303 117.052 79.7167 124.257 83.3206L132.922 77.559C124.1 71.9015 113.634 69.3664 103.201 70.3591C92.7669 71.3518 82.9675 75.8151 75.3699 83.0349C67.7724 90.2547 62.8157 99.814 61.2926 110.184C59.7696 120.553 61.7682 131.134 66.9689 140.234C67.7863 141.649 68.9601 142.827 70.3735 143.649C71.7869 144.47 73.3908 144.908 75.0257 144.918H139.902C141.553 144.924 143.176 144.495 144.607 143.672C146.038 142.849 147.227 141.663 148.052 140.234C152.368 132.757 154.534 124.234 154.311 115.604C154.088 106.974 151.484 98.5738 146.788 91.3305L146.741 91.3774ZM100.882 123.417C101.753 124.288 102.786 124.979 103.923 125.451C105.06 125.922 106.279 126.165 107.511 126.165C108.742 126.165 109.961 125.922 111.098 125.451C112.235 124.979 113.269 124.288 114.139 123.417L140.651 83.6485L100.882 110.161C100.011 111.031 99.3204 112.064 98.849 113.202C98.3775 114.339 98.1348 115.558 98.1348 116.789C98.1348 118.02 98.3775 119.239 98.849 120.377C99.3204 121.514 100.011 122.547 100.882 123.417Z" fill="white"/>
</svg>
