<svg width="216" height="216" viewBox="0 0 216 216" fill="none" xmlns="http://www.w3.org/2000/svg">
<path d="M0 107.999L54.0003 14.4681H162.003L216 107.999L162.003 201.531H54.0003L0 107.999Z" fill="#2B2B2B"/>
<path d="M76.3839 80.281V119.252H95.8696V103.664C95.8696 101.597 96.6908 99.6142 98.1525 98.1525C99.6142 96.6908 101.597 95.8696 103.664 95.8696H123.15C125.217 95.8696 127.199 96.6908 128.661 98.1525C130.123 99.6142 130.944 101.597 130.944 103.664V119.252H138.738V80.281H76.3839ZM60.7953 134.841V127.047H76.3839C74.3167 127.047 72.3342 126.225 70.8725 124.764C69.4108 123.302 68.5896 121.32 68.5896 119.252V80.281C68.5896 78.2139 69.4108 76.2314 70.8725 74.7696C72.3342 73.3079 74.3167 72.4868 76.3839 72.4868H138.738C140.805 72.4868 142.788 73.3079 144.249 74.7696C145.711 76.2314 146.532 78.2139 146.532 80.281V119.252C146.532 121.32 145.711 123.302 144.249 124.764C142.788 126.225 140.805 127.047 138.738 127.047H154.327V134.841H130.944C130.944 136.908 130.123 138.891 128.661 140.352C127.199 141.814 125.217 142.635 123.15 142.635H103.664C101.597 142.635 99.6142 141.814 98.1525 140.352C96.6908 138.891 95.8696 136.908 95.8696 134.841H60.7953ZM105.612 134.841C105.096 134.841 104.6 135.046 104.235 135.412C103.869 135.777 103.664 136.273 103.664 136.79C103.664 137.306 103.869 137.802 104.235 138.167C104.6 138.533 105.096 138.738 105.612 138.738C106.129 138.738 106.625 138.533 106.99 138.167C107.356 137.802 107.561 137.306 107.561 136.79C107.561 136.273 107.356 135.777 106.99 135.412C106.625 135.046 106.129 134.841 105.612 134.841ZM121.201 134.841C120.684 134.841 120.189 135.046 119.823 135.412C119.458 135.777 119.252 136.273 119.252 136.79C119.252 137.306 119.458 137.802 119.823 138.167C120.189 138.533 120.684 138.738 121.201 138.738C121.718 138.738 122.213 138.533 122.579 138.167C122.944 137.802 123.15 137.306 123.15 136.79C123.15 136.273 122.944 135.777 122.579 135.412C122.213 135.046 121.718 134.841 121.201 134.841ZM111.458 134.841V138.738H115.355V134.841H111.458ZM103.664 103.664V130.944H123.15V103.664H103.664Z" fill="white"/>
</svg>
